<svg width="113" height="114" viewBox="0 0 113 114" fill="none" xmlns="http://www.w3.org/2000/svg">
<g filter="url(#filter0_d)">
<rect x="8" y="7" width="97" height="98" rx="24" fill="white"/>
<path d="M49 39C54.8681 39 59.625 43.7569 59.625 49.625C59.625 55.4931 54.8681 60.25 49 60.25C43.1319 60.25 38.375 55.4931 38.375 49.625C38.375 43.7569 43.1319 39 49 39ZM61.1711 61.1678L56.4355 59.9839C51.4602 63.5625 45.4295 62.7639 41.5645 59.9839L36.8289 61.1678C33.9909 61.8773 32 64.4272 32 67.3525V69.8125C32 71.5729 33.4271 73 35.1875 73H62.8125C64.5729 73 66 71.5729 66 69.8125V67.3525C66 64.4272 64.0091 61.8773 61.1711 61.1678Z" fill="#4593BF"/>
<path d="M80.604 53.0206L80.3862 53.3968C80.3065 53.5362 80.1365 53.594 79.9851 53.5388C79.6716 53.4231 79.3847 53.2574 79.1323 53.0496C79.0101 52.9496 78.9783 52.7734 79.058 52.6366L79.2758 52.2605C79.0925 52.0501 78.949 51.8055 78.8534 51.5399H78.4151C78.2557 51.5399 78.1176 51.4268 78.091 51.269C78.0379 50.9533 78.0352 50.6219 78.091 50.2932C78.1176 50.1354 78.2557 50.0196 78.4151 50.0196H78.8534C78.949 49.754 79.0925 49.5094 79.2758 49.299L79.058 48.9229C78.9783 48.7861 79.0075 48.6099 79.1323 48.5099C79.3847 48.3021 79.6743 48.1364 79.9851 48.0207C80.1365 47.9655 80.3065 48.0233 80.3862 48.1627L80.604 48.5389C80.883 48.4889 81.1672 48.4889 81.4461 48.5389L81.664 48.1627C81.7437 48.0233 81.9137 47.9655 82.0651 48.0207C82.3785 48.1364 82.6654 48.3021 82.9178 48.5099C83.04 48.6099 83.0719 48.7861 82.9922 48.9229L82.7744 49.299C82.9577 49.5094 83.1011 49.754 83.1967 50.0196H83.6351C83.7944 50.0196 83.9326 50.1327 83.9592 50.2905C84.0123 50.6062 84.0149 50.9376 83.9592 51.2663C83.9326 51.4241 83.7944 51.5399 83.6351 51.5399H83.1967C83.1011 51.8055 82.9577 52.0501 82.7744 52.2605L82.9922 52.6366C83.0719 52.7734 83.0427 52.9496 82.9178 53.0496C82.6654 53.2574 82.3759 53.4231 82.0651 53.5388C81.9137 53.594 81.7437 53.5362 81.664 53.3968L81.4461 53.0206C81.1699 53.0706 80.883 53.0706 80.604 53.0206ZM80.3251 51.4741C81.3478 52.2526 82.514 51.098 81.7277 50.0854C80.705 49.3042 79.5388 50.4615 80.3251 51.4741ZM77.2622 55.5219L78.1574 55.9638C78.4257 56.1163 78.5426 56.4399 78.4363 56.7292C78.1999 57.3657 77.735 57.9496 77.3047 58.4598C77.1081 58.6939 76.7681 58.7518 76.4998 58.5992L75.7268 58.1574C75.3017 58.5177 74.8076 58.8044 74.2683 58.9911V59.8748C74.2683 60.1799 74.0479 60.443 73.745 60.4956C73.0915 60.606 72.4062 60.6113 71.7288 60.4956C71.4233 60.443 71.1975 60.1826 71.1975 59.8748V58.9911C70.6582 58.8017 70.1641 58.5177 69.7391 58.1574L68.966 58.5966C68.7004 58.7491 68.3577 58.6913 68.1611 58.4572C67.7308 57.9469 67.2765 57.363 67.0401 56.7292C66.9338 56.4425 67.0507 56.119 67.319 55.9638L68.2036 55.5219C68.1 54.9722 68.1 54.4067 68.2036 53.8544L67.319 53.4099C67.0507 53.2574 66.9312 52.9339 67.0401 52.6472C67.2765 52.0107 67.7308 51.4268 68.1611 50.9165C68.3577 50.6824 68.6977 50.6246 68.966 50.7771L69.7391 51.219C70.1641 50.8587 70.6582 50.572 71.1975 50.3852V49.4989C71.1975 49.1964 71.4153 48.9334 71.7181 48.8808C72.3716 48.7703 73.0597 48.7651 73.7371 48.8781C74.0425 48.9308 74.2683 49.1911 74.2683 49.4989V50.3826C74.8076 50.572 75.3017 50.856 75.7268 51.2164L76.4998 50.7745C76.7654 50.6219 77.1081 50.6798 77.3047 50.9139C77.735 51.4241 78.1866 52.008 78.4231 52.6445C78.5293 52.9312 78.4257 53.2547 78.1574 53.4099L77.2622 53.8518C77.3658 54.4041 77.3658 54.9696 77.2622 55.5219ZM74.1382 56.0769C75.7108 54.0517 73.3758 51.7398 71.3303 53.2968C69.7577 55.322 72.0927 57.6339 74.1382 56.0769ZM80.604 60.8822L80.3862 61.2583C80.3065 61.3977 80.1365 61.4556 79.9851 61.4003C79.6716 61.2846 79.3847 61.1189 79.1323 60.9111C79.0101 60.8112 78.9783 60.635 79.058 60.4982L79.2758 60.1221C79.0925 59.9117 78.949 59.6671 78.8534 59.4014H78.4151C78.2557 59.4014 78.1176 59.2883 78.091 59.1305C78.0379 58.8149 78.0352 58.4835 78.091 58.1547C78.1176 57.9969 78.2557 57.8812 78.4151 57.8812H78.8534C78.949 57.6155 79.0925 57.3709 79.2758 57.1605L79.058 56.7844C78.9783 56.6476 79.0075 56.4714 79.1323 56.3715C79.3847 56.1637 79.6743 55.998 79.9851 55.8823C80.1365 55.827 80.3065 55.8849 80.3862 56.0243L80.604 56.4004C80.883 56.3504 81.1672 56.3504 81.4461 56.4004L81.664 56.0243C81.7437 55.8849 81.9137 55.827 82.0651 55.8823C82.3785 55.998 82.6654 56.1637 82.9178 56.3715C83.04 56.4714 83.0719 56.6476 82.9922 56.7844L82.7744 57.1605C82.9577 57.3709 83.1011 57.6155 83.1967 57.8812H83.6351C83.7944 57.8812 83.9326 57.9943 83.9592 58.1521C84.0123 58.4677 84.0149 58.7991 83.9592 59.1279C83.9326 59.2857 83.7944 59.4014 83.6351 59.4014H83.1967C83.1011 59.6671 82.9577 59.9117 82.7744 60.1221L82.9922 60.4982C83.0719 60.635 83.0427 60.8112 82.9178 60.9111C82.6654 61.1189 82.3759 61.2846 82.0651 61.4003C81.9137 61.4556 81.7437 61.3977 81.664 61.2583L81.4461 60.8822C81.1699 60.9322 80.883 60.9322 80.604 60.8822ZM80.3251 59.333C81.3478 60.1116 82.514 58.9569 81.7277 57.9443C80.705 57.1658 79.5388 58.3204 80.3251 59.333Z" fill="#4593BF"/>
</g>
<defs>
<filter id="filter0_d" x="0" y="0" width="113" height="114" filterUnits="userSpaceOnUse" color-interpolation-filters="sRGB">
<feFlood flood-opacity="0" result="BackgroundImageFix"/>
<feColorMatrix in="SourceAlpha" type="matrix" values="0 0 0 0 0 0 0 0 0 0 0 0 0 0 0 0 0 0 127 0"/>
<feMorphology radius="4" operator="dilate" in="SourceAlpha" result="effect1_dropShadow"/>
<feOffset dy="1"/>
<feGaussianBlur stdDeviation="2"/>
<feColorMatrix type="matrix" values="0 0 0 0 0.195833 0 0 0 0 0.195833 0 0 0 0 0.195833 0 0 0 0.05 0"/>
<feBlend mode="normal" in2="BackgroundImageFix" result="effect1_dropShadow"/>
<feBlend mode="normal" in="SourceGraphic" in2="effect1_dropShadow" result="shape"/>
</filter>
</defs>
</svg>
