<svg width="113" height="114" viewBox="0 0 113 114" fill="none" xmlns="http://www.w3.org/2000/svg">
<g filter="url(#filter0_d)">
<rect x="8" y="7" width="97" height="98" rx="24" fill="white"/>
<path d="M49 39C54.8681 39 59.625 43.7569 59.625 49.625C59.625 55.4931 54.8681 60.25 49 60.25C43.1319 60.25 38.375 55.4931 38.375 49.625C38.375 43.7569 43.1319 39 49 39ZM61.1711 61.1678L56.4355 59.9839C51.4602 63.5625 45.4295 62.7639 41.5645 59.9839L36.8289 61.1678C33.9909 61.8773 32 64.4272 32 67.3525V69.8125C32 71.5729 33.4271 73 35.1875 73H62.8125C64.5729 73 66 71.5729 66 69.8125V67.3525C66 64.4272 64.0091 61.8773 61.1711 61.1678Z" fill="#386D7A"/>
<path d="M80.6224 61H68.3776C68.1522 61 67.9695 60.8111 67.9695 60.5781V59.7344C67.9695 59.5014 68.1522 59.3125 68.3776 59.3125H80.6224C80.8478 59.3125 81.0305 59.5014 81.0305 59.7344V60.5781C81.0305 60.8111 80.8478 61 80.6224 61ZM74.4857 43C73.4337 43 72.5809 43.8814 72.5809 44.9688C72.5809 46.0561 73.4337 46.9375 74.4857 46.9375C75.5376 46.9375 76.3904 46.0561 76.3904 44.9688C76.3904 43.8814 75.5376 43 74.4857 43ZM81.4437 48.4364C81.2475 48.3293 81.0044 48.4036 80.8967 48.604C80.6036 49.1495 80.123 49.933 79.3979 49.933C78.4212 49.933 78.3562 49.2368 78.3202 47.91C78.3139 47.6818 78.1331 47.5 77.9122 47.5H76.5174C76.3414 47.5 76.1857 47.617 76.1301 47.7896C75.8277 48.7286 75.2433 49.2307 74.5 49.2307C73.7567 49.2307 73.1723 48.7286 72.8699 47.7896C72.8143 47.617 72.6586 47.5 72.4826 47.5H71.0879C70.8669 47.5 70.6861 47.6819 70.6799 47.9101C70.6441 49.2335 70.5801 49.933 69.6021 49.933C68.8983 49.933 68.4518 49.222 68.091 48.5962C67.9799 48.4035 67.7421 48.3349 67.5502 48.4396L66.2176 49.1666C66.128 49.2155 66.0592 49.2971 66.0246 49.3955C65.99 49.4939 65.992 49.6021 66.0302 49.6991L69.6021 58.75H79.3979L82.9698 49.6991C83.008 49.6021 83.01 49.4939 82.9754 49.3955C82.9408 49.2971 82.872 49.2155 82.7824 49.1667L81.4437 48.4364Z" fill="#386D7A"/>
</g>
<defs>
<filter id="filter0_d" x="0" y="0" width="113" height="114" filterUnits="userSpaceOnUse" color-interpolation-filters="sRGB">
<feFlood flood-opacity="0" result="BackgroundImageFix"/>
<feColorMatrix in="SourceAlpha" type="matrix" values="0 0 0 0 0 0 0 0 0 0 0 0 0 0 0 0 0 0 127 0"/>
<feMorphology radius="4" operator="dilate" in="SourceAlpha" result="effect1_dropShadow"/>
<feOffset dy="1"/>
<feGaussianBlur stdDeviation="2"/>
<feColorMatrix type="matrix" values="0 0 0 0 0.195833 0 0 0 0 0.195833 0 0 0 0 0.195833 0 0 0 0.05 0"/>
<feBlend mode="normal" in2="BackgroundImageFix" result="effect1_dropShadow"/>
<feBlend mode="normal" in="SourceGraphic" in2="effect1_dropShadow" result="shape"/>
</filter>
</defs>
</svg>
