<svg width="113" height="114" viewBox="0 0 113 114" fill="none" xmlns="http://www.w3.org/2000/svg">
<g filter="url(#filter0_d)">
<rect x="8" y="7" width="97" height="98" rx="24" fill="white"/>
<path d="M49 39C54.8681 39 59.625 43.7569 59.625 49.625C59.625 55.4931 54.8681 60.25 49 60.25C43.1319 60.25 38.375 55.4931 38.375 49.625C38.375 43.7569 43.1319 39 49 39ZM61.1711 61.1678L56.4355 59.9839C51.4602 63.5625 45.4295 62.7639 41.5645 59.9839L36.8289 61.1678C33.9909 61.8773 32 64.4272 32 67.3525V69.8125C32 71.5729 33.4271 73 35.1875 73H62.8125C64.5729 73 66 71.5729 66 69.8125V67.3525C66 64.4272 64.0091 61.8773 61.1711 61.1678Z" fill="#71C7DC"/>
<path d="M81.8038 55.7716C80.1397 52.9115 77.0361 51 73.5 51C69.9625 51 66.8595 52.9129 65.1962 55.7716C65.0677 55.9923 65 56.2438 65 56.5C65 56.7562 65.0677 57.0077 65.1962 57.2285C66.8603 60.0885 69.9639 62 73.5 62C77.0375 62 80.1405 60.0871 81.8038 57.2284C81.9323 57.0077 82 56.7562 82 56.5C82 56.2438 81.9323 55.9923 81.8038 55.7716ZM73.5 60.5652C71.2817 60.5652 69.4861 58.747 69.4861 56.5C69.4861 54.2533 71.2813 52.4348 73.5 52.4348C75.7183 52.4348 77.5139 54.253 77.5139 56.5C77.5139 58.7467 75.7187 60.5652 73.5 60.5652ZM76.5694 56.5C76.5694 58.2169 75.1952 59.6087 73.5 59.6087C71.8048 59.6087 70.4306 58.2169 70.4306 56.5C70.4306 55.9707 70.5613 55.4724 70.7917 55.0361L70.7917 55.0371C70.7917 55.744 71.3575 56.3171 72.0556 56.3171C72.7536 56.3171 73.3195 55.744 73.3195 55.0371C73.3195 54.3301 72.7536 53.757 72.0556 53.757L72.0546 53.7571C72.4853 53.5238 72.9774 53.3913 73.5 53.3913C75.1952 53.3913 76.5694 54.7831 76.5694 56.5Z" fill="#71C7DC"/>
</g>
<defs>
<filter id="filter0_d" x="0" y="0" width="113" height="114" filterUnits="userSpaceOnUse" color-interpolation-filters="sRGB">
<feFlood flood-opacity="0" result="BackgroundImageFix"/>
<feColorMatrix in="SourceAlpha" type="matrix" values="0 0 0 0 0 0 0 0 0 0 0 0 0 0 0 0 0 0 127 0"/>
<feMorphology radius="4" operator="dilate" in="SourceAlpha" result="effect1_dropShadow"/>
<feOffset dy="1"/>
<feGaussianBlur stdDeviation="2"/>
<feColorMatrix type="matrix" values="0 0 0 0 0.195833 0 0 0 0 0.195833 0 0 0 0 0.195833 0 0 0 0.05 0"/>
<feBlend mode="normal" in2="BackgroundImageFix" result="effect1_dropShadow"/>
<feBlend mode="normal" in="SourceGraphic" in2="effect1_dropShadow" result="shape"/>
</filter>
</defs>
</svg>
