<svg width="145" height="14" viewBox="0 0 145 14" fill="none" xmlns="http://www.w3.org/2000/svg">
<g clip-path="url(#clip0)">
<path d="M76.8506 12.2264C76.8506 12.2264 74.1578 13.7926 70.3892 12.9256C69.4516 11.9327 69.4131 8.26436 69.0802 7.48593L69.198 7.54653C73.4739 10.0519 76.8506 12.2264 76.8506 12.2264ZM67.5447 6.57699C66.5527 6.00599 65.529 5.43033 64.5076 4.86632H64.4691C64.9221 5.46296 65.9208 9.24788 64.7364 10.1288C65.4264 10.5421 66.1216 10.9671 66.8222 11.4037C67.5886 11.8805 68.4025 12.2712 69.25 12.569L69.2999 12.5434C68.2377 10.5204 68.1992 7.58382 67.5447 6.56068V6.57699ZM59.7742 2.40286C60.1842 2.72449 61.0516 7.29715 60.431 7.69569C61.1716 8.08956 62.0164 8.56501 62.8022 9.01482V8.9985C64.3876 8.42051 63.5179 5.12036 62.8611 3.98302C61.8148 3.42134 60.773 2.88763 59.7742 2.40286ZM58.3814 1.74796C56.06 0.699184 54.0896 0 52.9165 0C50.2622 0 47.7687 1.95305 45.3499 3.88047C46.5276 5.17862 48.0042 6.46046 49.0392 6.31363C50.4479 5.43266 51.7977 4.81272 53.0207 4.81272C54.2436 4.81272 56.4065 5.64941 59.0314 6.96621C60.2815 6.78675 59.0314 2.79907 58.3723 1.76894L58.3814 1.74796ZM44.4009 4.63326C42.9447 5.77759 41.5111 6.81705 40.0797 7.30648C40.1432 7.37173 43.0942 8.37623 47.4471 7.38339C47.7347 7.18062 48.0744 6.94756 48.353 6.76111C47.0258 6.97087 45.5809 5.93141 44.4009 4.63326ZM35.6883 6.83802C31.9469 4.9106 28.1421 0 23.9319 0C18.9992 0 0 12.2264 0 12.2264C0 12.2264 4.5069 14.853 10.0284 11.42C15.8036 7.81688 21.5154 4.81505 23.83 4.81505C28.0606 4.81505 33.7814 12.2264 38.4264 12.2264C40.732 12.2264 43.3048 10.3969 45.83 8.55568C41.7217 8.84235 40.4738 9.16164 35.6883 6.83802Z" fill="url(#paint0_linear)"/>
<path d="M101.276 13.8039H99.2563V7.30386L95.5171 13.8039L91.7463 7.30386V13.8039H89.7578V2.83374H91.6195L95.5171 9.74401L99.3672 2.83374H101.276V13.8039Z" fill="#548E9B"/>
<path d="M115.772 8.62299C115.772 9.77897 115.558 10.7337 115.129 11.4873C114.692 12.2503 114.067 12.8808 113.317 13.3145C112.562 13.7711 111.702 14.0124 110.826 14.0137C109.943 14.0117 109.076 13.7705 108.312 13.3145C107.549 12.8837 106.917 12.2461 106.482 11.471C106.017 10.5988 105.781 9.61746 105.796 8.62299V2.83374H107.818V8.62299C107.803 9.23953 107.945 9.84937 108.23 10.3919C108.488 10.8513 108.862 11.2299 109.313 11.4873C109.767 11.7581 110.283 11.8996 110.808 11.8975C111.322 11.8946 111.828 11.7544 112.274 11.4905C112.721 11.2267 113.093 10.8481 113.355 10.3919C113.639 9.84894 113.781 9.23941 113.768 8.62299V2.83374H115.772V8.62299Z" fill="#548E9B"/>
<path d="M129.853 10.5303C129.865 11.0249 129.758 11.5148 129.543 11.9572C129.328 12.3997 129.01 12.7811 128.619 13.0683C127.808 13.6898 126.66 14.0006 125.174 14.0006C123.127 14.0006 121.361 13.4498 119.877 12.3482L121.039 10.6445C122.241 11.4823 123.663 11.9222 125.115 11.9054C126.06 11.8727 126.757 11.7375 127.208 11.4952C127.659 11.2528 127.887 10.9288 127.901 10.514C127.915 10.0991 127.711 9.77983 127.222 9.52347C126.732 9.2671 125.996 9.08298 124.977 8.97344C123.191 8.77767 121.996 8.404 121.392 7.85242C121.097 7.58826 120.863 7.25882 120.709 6.88873C120.555 6.51864 120.484 6.11748 120.502 5.71524C120.522 4.783 120.957 4.04342 121.807 3.4965C122.753 2.93024 123.831 2.63942 124.925 2.65515C126.435 2.67495 127.911 3.12249 129.19 3.94864L128.075 5.61736C127.074 5.0362 125.939 4.74242 124.789 4.76668C124.271 4.7521 123.753 4.8181 123.254 4.96246C122.771 5.10385 122.54 5.35477 122.561 5.71524C122.54 6.04308 122.746 6.30256 123.181 6.49367C123.616 6.68478 124.359 6.83627 125.41 6.94348C127.063 7.09885 128.219 7.53001 128.877 8.23697C129.535 8.94392 129.861 9.70836 129.853 10.5303Z" fill="#548E9B"/>
<path d="M144.999 13.8043H142.757L141.675 11.4201H136.239L135.125 13.8113H132.883L137.926 2.84106H139.963L144.999 13.8043ZM140.696 9.30153L138.946 5.48631L137.181 9.30153H140.696Z" fill="#548E9B"/>
</g>
<defs>
<linearGradient id="paint0_linear" x1="19.2121" y1="31.997" x2="58.7371" y2="-6.41142" gradientUnits="userSpaceOnUse">
<stop stop-color="#308EA3"/>
<stop offset="1" stop-color="#A0C3BB"/>
</linearGradient>
<clipPath id="clip0">
<rect width="145" height="14" fill="white"/>
</clipPath>
</defs>
</svg>
