<svg width="155" height="14" viewBox="0 0 155 14" fill="none" xmlns="http://www.w3.org/2000/svg">
<path d="M82.1507 12.2264C82.1507 12.2264 79.2722 13.7926 75.2437 12.9256C74.2414 11.9327 74.2002 8.26436 73.8443 7.48593L73.9702 7.54653C78.541 10.0519 82.1507 12.2264 82.1507 12.2264ZM72.2029 6.57699C71.1425 6.00599 70.0483 5.43033 68.9564 4.86632H68.9153C69.3995 5.46296 70.4671 9.24788 69.2009 10.1288C69.9385 10.5421 70.6818 10.9671 71.4306 11.4037C72.2498 11.8805 73.1199 12.2712 74.0259 12.569L74.0792 12.5434C72.9437 10.5204 72.9026 7.58382 72.2029 6.56068V6.57699ZM63.8966 2.40286C64.3348 2.72449 65.262 7.29715 64.5987 7.69569C65.3903 8.08956 66.2934 8.56501 67.1334 9.01481V8.9985C68.8281 8.42051 67.8985 5.12036 67.1964 3.98302C66.0779 3.42134 64.9642 2.88763 63.8966 2.40286ZM62.4077 1.74796C59.9262 0.699184 57.82 0 56.5659 0C53.7285 0 51.063 1.95305 48.4775 3.88047C49.7364 5.17862 51.3148 6.46046 52.4212 6.31363C53.927 5.43266 55.3699 4.81272 56.6773 4.81272C57.9846 4.81272 60.2966 5.64941 63.1025 6.9662C64.4389 6.78675 63.1025 2.79907 62.398 1.76894L62.4077 1.74796ZM47.4631 4.63326C45.9064 5.77759 44.3739 6.81705 42.8439 7.30647C42.9116 7.37173 46.0662 8.37623 50.7193 7.38338C51.0267 7.18062 51.3899 6.94756 51.6877 6.76111C50.269 6.97087 48.7244 5.93141 47.4631 4.63326ZM38.1496 6.83802C34.1502 4.9106 30.0829 0 25.5824 0C20.3095 0 0 12.2264 0 12.2264C0 12.2264 4.81773 14.853 10.72 11.42C16.8935 7.81688 22.9992 4.81505 25.4734 4.81505C29.9958 4.81505 36.1111 12.2264 41.0766 12.2264C43.5411 12.2264 46.2913 10.3969 48.9907 8.55568C44.5991 8.84235 43.2651 9.16164 38.1496 6.83802Z" fill="white"/>
<path d="M108.26 13.8042H106.101V7.3041L102.104 13.8042L98.0729 7.3041V13.8042H95.9473V2.83398H97.9373L102.104 9.74426L106.219 2.83398H108.26V13.8042Z" fill="white"/>
<path d="M123.755 8.62323C123.755 9.77922 123.526 10.734 123.067 11.4876C122.601 12.2506 121.932 12.881 121.131 13.3148C120.323 13.7713 119.404 14.0127 118.468 14.0139C117.524 14.0119 116.597 13.7708 115.78 13.3148C114.965 12.884 114.289 12.2464 113.824 11.4712C113.328 10.5991 113.075 9.6177 113.091 8.62323V2.83398H115.252V8.62323C115.237 9.23978 115.388 9.84961 115.693 10.3922C115.969 10.8516 116.369 11.2302 116.85 11.4876C117.336 11.7583 117.887 11.8999 118.448 11.8977C118.999 11.8949 119.539 11.7547 120.016 11.4908C120.494 11.2269 120.892 10.8484 121.172 10.3922C121.475 9.84919 121.627 9.23965 121.612 8.62323V2.83398H123.755V8.62323Z" fill="white"/>
<path d="M138.809 10.5296C138.821 11.0242 138.707 11.5141 138.477 11.9565C138.247 12.3989 137.908 12.7804 137.489 13.0676C136.623 13.6891 135.395 13.9998 133.807 13.9998C131.619 13.9998 129.731 13.449 128.145 12.3474L129.386 10.6438C130.672 11.4816 132.192 11.9215 133.744 11.9046C134.754 11.872 135.499 11.7368 135.981 11.4944C136.463 11.252 136.708 10.9281 136.722 10.5132C136.737 10.0984 136.519 9.7791 135.996 9.52273C135.473 9.26637 134.686 9.08225 133.597 8.97271C131.687 8.77694 130.41 8.40326 129.764 7.85168C129.448 7.58753 129.199 7.25809 129.034 6.888C128.869 6.51791 128.794 6.11674 128.813 5.71451C128.834 4.78226 129.299 4.04268 130.207 3.49577C131.219 2.92951 132.371 2.63868 133.541 2.65441C135.155 2.67422 136.732 3.12176 138.1 3.94791L136.908 5.61662C135.838 5.03547 134.625 4.74168 133.396 4.76595C132.841 4.75137 132.288 4.81737 131.754 4.96172C131.238 5.10311 130.991 5.35404 131.013 5.71451C130.991 6.04235 131.212 6.30183 131.677 6.49294C132.142 6.68405 132.936 6.83554 134.059 6.94274C135.826 7.09812 137.062 7.52928 137.765 8.23624C138.469 8.94319 138.817 9.70763 138.809 10.5296Z" fill="white"/>
<path d="M155 13.8045H152.603L151.446 11.4203H145.636L144.445 13.8115H142.048L147.439 2.84131H149.616L155 13.8045ZM150.4 9.30177L148.529 5.48656L146.643 9.30177H150.4Z" fill="white"/>
</svg>
